<?xml version="1.0" standalone="no"?>
<!DOCTYPE svg PUBLIC "-//W3C//DTD SVG 20010904//EN"
 "http://www.w3.org/TR/2001/REC-SVG-20010904/DTD/svg10.dtd">
<svg version="1.0" xmlns="http://www.w3.org/2000/svg"
 width="512.000000pt" height="512.000000pt" viewBox="0 0 512.000000 512.000000"
 preserveAspectRatio="xMidYMid meet">

<g transform="translate(0.000000,512.000000) scale(0.100000,-0.100000)"
fill="#000000" stroke="none">
<path d="M3240 4850 c-36 -4 7 -7 125 -9 511 -5 892 -146 1185 -441 370 -371
498 -909 334 -1400 -63 -188 -171 -365 -313 -512 -187 -195 -386 -311 -651
-380 -151 -39 -358 -49 -495 -24 -113 22 -275 75 -381 126 -76 37 -92 50 -275
242 -196 206 -269 288 -269 304 0 14 60 51 110 69 56 20 209 45 318 52 96 6
146 -8 218 -64 65 -49 91 -57 120 -38 26 17 32 56 11 74 -7 6 -45 18 -83 26
-74 18 -128 45 -138 71 -11 30 -6 61 14 79 25 22 124 45 200 45 64 0 120 14
132 32 16 27 8 72 -19 100 -43 45 -71 37 -159 -42 -61 -56 -149 -80 -184 -52
-20 17 -22 22 -11 53 6 19 40 81 76 138 36 58 65 113 65 123 0 33 -20 59 -57
74 -70 30 -87 4 -103 -151 -15 -146 -31 -180 -82 -173 -29 4 -44 59 -57 200
-4 54 -14 104 -21 113 -7 8 -27 15 -46 15 -67 0 -71 -74 -10 -176 42 -69 55
-126 36 -149 -23 -27 -49 -17 -86 35 -25 35 -43 50 -58 50 -48 0 -73 -65 -39
-102 9 -10 46 -27 83 -38 90 -27 122 -66 101 -123 -18 -46 -63 -58 -281 -77
-251 -22 -325 -61 -322 -169 2 -87 61 -207 158 -319 l37 -42 -69 26 c-157 58
-303 153 -412 268 -81 85 -108 131 -99 168 8 32 43 47 150 63 61 9 100 21 126
38 20 14 109 100 197 192 87 92 171 173 186 181 24 12 34 12 90 -6 35 -11 73
-20 84 -20 37 0 46 53 16 90 l-18 22 -71 -22 c-56 -17 -76 -19 -92 -10 -20 10
-20 13 -7 39 18 34 67 67 169 114 67 31 77 39 77 61 0 33 -33 66 -65 66 -18 0
-43 -22 -100 -87 -85 -97 -109 -117 -130 -109 -26 9 -16 49 29 127 58 99 64
121 37 148 -24 24 -89 29 -109 9 -8 -8 -12 -47 -12 -108 0 -114 -12 -145 -55
-145 -27 0 -33 7 -60 62 -16 33 -36 68 -44 77 -21 25 -68 20 -87 -8 -26 -41
-15 -66 45 -97 61 -32 71 -43 71 -81 0 -19 -8 -33 -26 -44 -24 -16 -29 -16
-87 4 -34 12 -72 22 -84 22 -28 0 -57 -42 -48 -70 11 -35 38 -42 111 -28 65
12 67 11 86 -12 23 -28 18 -70 -14 -135 -59 -115 -125 -155 -274 -163 -116 -6
-188 14 -264 72 -30 23 -60 46 -67 49 -6 4 -71 12 -143 17 -144 11 -175 22
-213 72 -40 53 -54 87 -103 249 -25 85 -57 175 -71 201 -103 190 -361 331
-717 393 -356 61 -436 -58 -271 -403 75 -156 154 -274 244 -363 97 -96 184
-147 338 -200 157 -53 218 -90 258 -153 27 -44 30 -60 33 -142 3 -60 -4 -144
-18 -241 -12 -81 -26 -176 -30 -211 -5 -35 -11 -67 -15 -70 -12 -12 -116 51
-154 95 -57 64 -83 127 -84 198 -1 66 10 92 59 148 39 43 40 47 15 78 -16 20
-22 22 -44 12 -25 -12 -31 -25 -51 -115 -12 -55 -58 -75 -91 -38 -19 20 -19
21 1 188 5 42 3 56 -11 72 -26 29 -73 26 -87 -5 -10 -22 -7 -39 15 -105 15
-44 27 -88 27 -99 0 -47 -71 -69 -104 -33 -9 11 -27 48 -41 83 -14 35 -33 70
-42 77 -22 16 -58 15 -72 -2 -21 -25 0 -66 67 -137 54 -57 63 -73 58 -94 -11
-43 -38 -49 -136 -30 -114 22 -134 19 -138 -21 -5 -51 16 -60 99 -41 87 19
123 10 138 -35 25 -72 4 -114 -70 -137 -53 -17 -75 -44 -61 -76 19 -42 58 -33
113 24 63 66 78 73 174 79 118 7 141 -4 252 -115 91 -92 153 -132 200 -133 31
0 55 51 82 172 31 135 74 192 136 180 14 -2 76 -55 143 -122 285 -281 586
-450 970 -546 102 -25 184 -51 202 -64 63 -45 74 -102 90 -440 11 -236 28
-348 58 -390 33 -44 69 -50 312 -47 195 1 229 -1 256 -15 34 -18 44 -36 44
-73 0 -32 -47 -45 -158 -45 -75 0 -85 -2 -107 -25 -32 -31 -32 -60 0 -81 25
-16 29 -15 106 15 94 36 147 40 180 11 l24 -20 -25 -21 c-14 -12 -56 -37 -95
-56 -38 -20 -94 -51 -122 -69 -45 -29 -53 -38 -53 -64 0 -17 9 -39 21 -51 35
-35 65 -18 169 92 52 55 103 99 113 99 35 0 41 -46 22 -164 l-18 -109 23 -19
c25 -20 85 -24 96 -6 11 17 6 73 -12 156 -20 89 -14 150 16 174 52 42 86 10
140 -132 43 -112 62 -140 96 -140 32 0 74 54 74 95 0 29 -11 43 -91 116 -96
88 -122 124 -117 167 7 62 139 63 276 3 39 -17 79 -31 90 -31 22 0 52 53 52
93 0 57 -38 66 -185 46 -104 -15 -144 -4 -225 61 -83 66 -127 77 -342 88 -164
9 -182 12 -234 37 -47 23 -55 31 -50 49 3 11 13 132 21 269 9 153 19 258 27
274 24 49 65 63 230 79 517 48 865 138 1162 302 367 201 632 548 741 967 206
795 -191 1579 -920 1818 -206 68 -421 98 -680 95 -93 -1 -195 -4 -225 -8z"/>
</g>
</svg>
